<svg width="200" height="200" xmlns="http://www.w3.org/2000/svg" viewBox="0 0 400 232.71">
  <path d="m148.18,85.5c-16.56.46-33.11.91-49.67,1.37-18.05,0-36.13,1-54.18,1.2-11.79.14-18.39,5.99-20.02,17.7-2.94,21.31-5.68,42.67-8.33,64.01-1.52,12.45,4.89,20.96,17.37,22.05,34.75,3.06,69.51,5.88,104.3,8.4,12.91.94,19.1-4.57,21.16-17.56,3.83-24.19,7.59-48.38,11.29-72.58,2.49-16.31-5.19-24.74-21.93-24.59Z"/>
  <path d="m274.46,165.67c23.48.89,46.95,1.78,70.43,2.66,12.94.52,21.05-4.77,22.99-16.16,5.54-32.67,10.83-65.38,15.88-98.14,1.86-12.03-7.14-21.87-19.34-22-2.97-.03-5.94.23-8.89.52-48.01,4.63-96,9.29-144.01,13.97-12.89,1.26-18.5,6.66-20.16,19.48-3.17,24.27-6.22,48.56-9.45,72.83-1.92,14.51,5.33,23.45,19.9,24.04,24.22.97,48.44,1.86,72.66,2.8Z"/>
</svg>